<svg width="25" height="25" viewBox="0 0 25 25" fill="none" xmlns="http://www.w3.org/2000/svg">
<path d="M25 5.147V24.2647C25 24.4597 24.9225 24.6467 24.7846 24.7846C24.6467 24.9225 24.4597 25 24.2647 25H5.147C4.95198 25 4.76496 24.9225 4.62706 24.7846C4.48917 24.6467 4.4117 24.4597 4.4117 24.2647C4.4117 24.0697 4.48917 23.8827 4.62706 23.7448C4.76496 23.6069 4.95198 23.5294 5.147 23.5294H22.4897L0.21534 1.25509C0.0774602 1.11721 -3.84376e-09 0.93021 0 0.735218C3.84376e-09 0.540226 0.0774602 0.35322 0.21534 0.21534C0.35322 0.0774602 0.540226 3.84375e-09 0.735218 0C0.93021 -3.84376e-09 1.11721 0.0774602 1.25509 0.21534L23.5294 22.4897V5.147C23.5294 4.95198 23.6069 4.76496 23.7448 4.62706C23.8827 4.48917 24.0697 4.4117 24.2647 4.4117C24.4597 4.4117 24.6467 4.48917 24.7846 4.62706C24.9225 4.76496 25 4.95198 25 5.147Z" fill="#F5F5F5"/>
</svg>
